<?xml version="1.0" standalone="no"?>
<!DOCTYPE svg PUBLIC "-//W3C//DTD SVG 20010904//EN"
 "http://www.w3.org/TR/2001/REC-SVG-20010904/DTD/svg10.dtd">
<svg version="1.0" xmlns="http://www.w3.org/2000/svg"
 width="159.000000pt" height="200.000000pt" viewBox="0 0 159.000000 200.000000"
 preserveAspectRatio="xMidYMid meet">

<g transform="translate(0.000000,200.000000) scale(0.100000,-0.100000)"
fill="#000000" stroke="none">
<path d="M773 1942 c-27 -27 -664 -817 -700 -869 -38 -53 -40 -71 -12 -107 24
-30 45 -33 71 -9 17 16 18 1 18 -444 0 -411 2 -462 16 -467 20 -8 1248 -8
1268 0 14 5 16 56 16 470 l0 464 24 -15 c32 -21 60 -7 75 36 8 24 7 37 -4 57
-16 31 -701 883 -719 894 -18 12 -35 9 -53 -10z m490 -723 l117 -146 0 -466 0
-467 -580 0 -580 0 0 463 0 462 293 360 292 361 170 -211 c93 -116 223 -276
288 -356z"/>
<path d="M788 1479 c2 -33 6 -58 9 -56 9 10 8 110 -2 114 -6 2 -9 -20 -7 -58z"/>
<path d="M786 1320 c-4 -34 -10 -68 -13 -76 -4 -10 3 -14 27 -14 27 0 31 3 25
18 -4 9 -12 42 -17 72 -5 30 -10 56 -12 57 -2 2 -6 -24 -10 -57z"/>
<path d="M500 1335 c0 -14 5 -25 10 -25 6 0 10 11 10 25 0 14 -4 25 -10 25 -5
0 -10 -11 -10 -25z"/>
<path d="M1081 1344 c0 -11 3 -14 6 -6 3 7 2 16 -1 19 -3 4 -6 -2 -5 -13z"/>
<path d="M482 1238 c-6 -34 -15 -64 -20 -67 -10 -7 -29 -93 -41 -183 l-7 -58
96 0 96 0 -7 58 c-11 87 -46 215 -48 175 -1 -16 -81 -18 -81 -3 0 6 15 10 34
10 19 0 38 5 42 12 4 6 3 8 -4 4 -7 -4 -9 6 -6 31 3 30 2 34 -6 18 -8 -15 -9
-9 -4 25 4 33 2 41 -5 30 -9 -12 -13 -12 -19 -2 -5 8 -13 -11 -20 -50z m15
-10 c-3 -8 -6 -5 -6 6 -1 11 2 17 5 13 3 -3 4 -12 1 -19z m13 -148 c28 0 40 5
49 23 7 13 9 15 6 4 -3 -10 -5 -25 -5 -32 0 -9 -13 -13 -45 -12 -46 2 -65 16
-64 47 0 9 5 6 11 -7 9 -18 20 -23 48 -23z m23 33 c-13 -2 -33 -2 -45 0 -13 2
-3 4 22 4 25 0 35 -2 23 -4z m-63 -108 c0 -11 12 -15 40 -15 28 0 40 4 40 15
0 8 9 19 20 25 14 7 20 7 20 0 0 -5 -7 -10 -15 -10 -9 0 -15 -9 -15 -23 0 -21
-5 -23 -50 -23 -45 0 -50 2 -50 23 0 14 -6 23 -15 23 -8 0 -15 5 -15 10 0 7 6
7 20 0 11 -6 20 -17 20 -25z m68 -62 c-16 -2 -40 -2 -55 0 -16 2 -3 4 27 4 30
0 43 -2 28 -4z"/>
<path d="M1076 1265 c-4 -22 -11 -52 -16 -67 -9 -27 -8 -28 26 -28 25 0 33 4
28 12 -4 6 -13 37 -19 67 l-12 56 -7 -40z"/>
<path d="M840 1240 c-4 -21 -11 -25 -43 -26 -30 -1 -41 4 -47 20 -7 17 -9 15
-9 -14 -1 -69 7 -80 55 -80 49 0 58 15 52 86 -3 31 -5 34 -8 14z m-17 -67
c-13 -2 -33 -2 -45 0 -13 2 -3 4 22 4 25 0 35 -2 23 -4z"/>
<path d="M718 1142 c-4 -50 -1 -62 18 -62 8 0 17 -7 20 -15 4 -10 20 -15 45
-15 28 0 39 4 39 15 0 8 6 15 14 15 19 0 23 17 16 65 l-5 40 -11 -30 c-10 -27
-16 -30 -63 -33 -43 -2 -51 0 -51 15 0 10 -4 24 -9 32 -6 9 -10 1 -13 -27z
m105 -49 c-13 -2 -33 -2 -45 0 -13 2 -3 4 22 4 25 0 35 -2 23 -4z"/>
<path d="M1031 1145 c-1 -49 12 -65 56 -65 36 0 53 21 53 66 0 22 -3 25 -12
16 -19 -19 -86 -15 -91 6 -3 9 -5 -1 -6 -23z m72 -32 c-13 -2 -33 -2 -45 0
-13 2 -3 4 22 4 25 0 35 -2 23 -4z"/>
<path d="M1010 1078 c0 -34 4 -48 14 -48 7 0 16 -9 19 -20 4 -15 14 -20 40
-20 26 0 36 5 40 20 3 11 12 20 21 20 12 0 16 11 16 48 0 34 -3 43 -10 32 -5
-8 -10 -22 -10 -31 0 -12 -13 -16 -55 -18 -47 -2 -55 1 -55 16 0 10 -5 25 -10
33 -7 11 -10 2 -10 -32z"/>
<path d="M699 1032 l-4 -62 104 0 c90 0 102 2 97 16 -3 9 -6 37 -7 62 0 26 -3
41 -6 35 -2 -7 -11 -13 -19 -13 -9 0 -14 -11 -14 -27 0 -22 -2 -25 -10 -13 -6
9 -10 10 -10 3 0 -14 -40 -13 -40 2 0 5 -4 4 -9 -4 -11 -18 -31 -5 -31 20 0
12 -7 19 -19 19 -11 0 -21 6 -24 13 -2 6 -6 -16 -8 -51z m129 -49 c-15 -2 -42
-2 -60 0 -18 2 -6 4 27 4 33 0 48 -2 33 -4z"/>
<path d="M989 987 l-4 -57 100 0 100 0 -4 57 c-2 32 -6 52 -8 46 -3 -7 -11
-13 -19 -13 -8 0 -18 -10 -23 -22 -7 -19 -16 -23 -55 -24 -42 0 -46 2 -46 23
0 13 -6 23 -14 23 -8 0 -16 6 -19 13 -2 6 -6 -14 -8 -46z m124 -44 c-13 -2
-35 -2 -50 0 -16 2 -5 4 22 4 28 0 40 -2 28 -4z"/>
<path d="M696 621 c-3 -187 -9 -354 -12 -370 -6 -30 -5 -31 26 -31 31 0 32 1
26 31 -3 16 -9 183 -12 370 -4 186 -10 339 -14 339 -4 0 -10 -153 -14 -339z"/>
<path d="M735 950 c3 -5 33 -10 66 -10 33 0 59 4 59 10 0 6 -29 10 -66 10 -41
0 -63 -4 -59 -10z"/>
<path d="M870 808 c0 -84 -3 -251 -7 -371 l-6 -217 28 0 c26 0 27 2 21 38 -3
20 -9 187 -12 370 -4 182 -11 332 -16 332 -4 0 -8 -69 -8 -152z"/>
<path d="M734 850 l1 -85 63 -3 62 -3 -2 88 -2 88 -6 -85 -6 -85 -2 83 -2 82
-45 0 -45 0 -2 -82 -2 -83 -6 85 -7 85 1 -85z m84 -3 c3 -66 2 -68 -20 -65
-20 3 -23 9 -26 57 -4 65 2 84 25 79 15 -3 19 -16 21 -71z"/>
<path d="M780 850 c0 -47 3 -60 15 -60 12 0 15 13 15 60 0 47 -3 60 -15 60
-12 0 -15 -13 -15 -60z m17 -27 c-2 -16 -4 -3 -4 27 0 30 2 43 4 28 2 -16 2
-40 0 -55z"/>
<path d="M416 608 c-3 -172 -9 -329 -12 -350 -6 -36 -5 -38 21 -38 l28 0 -6
217 c-4 120 -7 278 -7 351 0 72 -4 132 -8 132 -5 0 -12 -140 -16 -312z"/>
<path d="M450 910 c0 -6 27 -10 60 -10 33 0 60 4 60 10 0 6 -27 10 -60 10 -33
0 -60 -4 -60 -10z"/>
<path d="M578 718 c-1 -112 -3 -177 -5 -145 l-4 57 -59 0 -60 0 0 -60 0 -60
60 0 60 0 0 -145 0 -145 26 0 c24 0 26 3 21 29 -4 17 -9 174 -13 350 -4 177
-11 321 -16 321 -4 0 -9 -91 -10 -202z m-68 -178 c5 0 11 15 13 33 4 31 4 31
5 -5 2 -32 -1 -38 -18 -38 -17 0 -20 6 -18 38 1 36 1 36 5 5 2 -18 8 -33 13
-33z"/>
<path d="M986 599 c-4 -176 -9 -333 -13 -350 -5 -27 -4 -29 27 -29 31 0 32 2
27 29 -4 17 -9 174 -13 350 -4 177 -10 321 -14 321 -4 0 -10 -144 -14 -321z"/>
<path d="M1020 910 c0 -6 27 -10 60 -10 33 0 60 4 60 10 0 6 -27 10 -60 10
-33 0 -60 -4 -60 -10z"/>
<path d="M1156 599 c-4 -176 -9 -333 -13 -350 -5 -27 -3 -29 22 -29 l28 0 -6
217 c-4 120 -7 278 -7 351 0 72 -4 132 -8 132 -5 0 -12 -144 -16 -321z"/>
<path d="M450 825 l0 -65 60 0 60 0 0 65 0 65 -60 0 -60 0 0 -65z m52 10 c-5
-41 15 -48 21 -7 4 25 4 25 6 -5 1 -27 -3 -33 -19 -33 -16 0 -20 7 -20 33 0
27 6 47 15 47 0 0 -1 -16 -3 -35z"/>
<path d="M1024 830 l1 -65 55 -3 55 -3 -3 66 -4 65 -44 0 -44 0 -2 -62 -1 -63
-7 65 -7 65 1 -65z m76 -6 c0 -22 -5 -34 -14 -34 -11 0 -12 8 -6 34 4 19 5 38
1 42 -3 4 0 4 7 0 6 -4 12 -23 12 -42z"/>
<path d="M620 795 c0 -45 0 -45 35 -45 33 0 35 2 35 33 0 17 -5 39 -10 47 -9
13 -11 13 -21 0 -8 -11 -12 -12 -16 -2 -11 27 -23 10 -23 -33z m53 -32 c-7 -2
-21 -2 -30 0 -10 3 -4 5 12 5 17 0 24 -2 18 -5z"/>
<path d="M910 795 c0 -45 0 -45 35 -45 33 0 35 2 35 33 0 17 -5 39 -10 47 -9
13 -11 13 -21 0 -8 -11 -12 -12 -16 -2 -11 27 -23 10 -23 -33z m53 -32 c-7 -2
-21 -2 -30 0 -10 3 -4 5 12 5 17 0 24 -2 18 -5z"/>
<path d="M450 695 l0 -55 60 0 60 0 0 55 0 55 -60 0 -60 0 0 -55z m57 -15 c4
-10 9 -5 13 15 l8 30 1 -32 c1 -27 -3 -33 -19 -33 -16 0 -20 6 -19 33 0 17 3
25 6 17 2 -8 7 -22 10 -30z"/>
<path d="M734 635 l1 -120 60 0 60 0 1 120 0 120 -6 -115 -6 -115 -2 113 -2
112 -45 0 -45 0 -2 -112 -2 -113 -6 115 -6 115 0 -120z m84 -8 c3 -98 3 -98
-20 -95 -22 3 -23 8 -26 87 -3 96 1 114 25 109 16 -3 18 -17 21 -101z"/>
<path d="M780 630 c0 -73 3 -90 15 -90 12 0 15 17 15 90 0 73 -3 90 -15 90
-12 0 -15 -17 -15 -90z m17 -42 c-2 -24 -4 -7 -4 37 0 44 2 63 4 43 2 -21 2
-57 0 -80z"/>
<path d="M1022 698 l-2 -58 58 0 57 0 -3 55 -4 55 -44 0 -44 0 -2 -52 -1 -53
-7 55 -7 55 -1 -57z m78 -4 c0 -26 -4 -34 -17 -33 -10 0 -13 2 -8 5 6 2 10 20
9 39 -1 19 2 32 7 29 5 -3 9 -21 9 -40z"/>
<path d="M620 700 c0 -39 1 -40 35 -40 34 0 35 1 35 40 0 39 -1 40 -35 40 -34
0 -35 -1 -35 -40z"/>
<path d="M910 700 c0 -39 1 -40 35 -40 34 0 35 1 35 40 0 39 -1 40 -35 40 -34
0 -35 -1 -35 -40z"/>
<path d="M620 640 c0 -5 16 -10 35 -10 19 0 35 5 35 10 0 6 -16 10 -35 10 -19
0 -35 -4 -35 -10z"/>
<path d="M910 640 c0 -5 16 -10 35 -10 19 0 35 5 35 10 0 6 -16 10 -35 10 -19
0 -35 -4 -35 -10z"/>
<path d="M1024 575 l1 -60 59 -3 c51 -3 58 -1 52 13 -3 9 -6 37 -6 61 l0 44
-45 0 -45 0 -2 -52 -1 -53 -7 55 -7 55 1 -60z m76 -5 c0 -32 -4 -40 -17 -39
-11 0 -13 3 -5 6 6 2 9 9 6 14 -6 11 3 59 11 59 3 0 5 -18 5 -40z"/>
<path d="M620 560 c0 -60 0 -60 29 -60 34 0 41 14 41 76 0 44 0 44 -35 44
l-35 0 0 -60z m48 -3 c3 -32 0 -37 -17 -37 -17 0 -21 6 -21 33 0 61 33 63 38
4z"/>
<path d="M640 560 c0 -16 5 -30 10 -30 6 0 10 14 10 30 0 17 -4 30 -10 30 -5
0 -10 -13 -10 -30z"/>
<path d="M910 560 c0 -60 0 -60 29 -60 34 0 41 14 41 76 0 44 0 44 -35 44
l-35 0 0 -60z m48 -3 c3 -32 0 -37 -17 -37 -17 0 -21 6 -21 33 0 61 33 63 38
4z"/>
<path d="M930 560 c0 -16 5 -30 10 -30 6 0 10 14 10 30 0 17 -4 30 -10 30 -5
0 -10 -13 -10 -30z"/>
<path d="M470 440 l0 -50 40 0 40 0 0 51 c0 46 -2 50 -22 47 -24 -3 -34 -29
-22 -56 6 -14 9 -11 14 13 l8 30 1 -32 c1 -27 -3 -33 -20 -33 -19 0 -21 5 -17
40 2 28 0 40 -9 40 -9 0 -13 -16 -13 -50z"/>
<path d="M620 455 c0 -32 2 -35 30 -35 28 0 30 3 30 35 0 32 -2 35 -30 35 -28
0 -30 -3 -30 -35z m27 0 c0 -8 -4 -12 -9 -9 -5 3 -6 10 -3 15 9 13 12 11 12
-6z m20 -7 c-3 -8 -6 -5 -6 6 -1 11 2 17 5 13 3 -3 4 -12 1 -19z"/>
<path d="M742 395 c-1 -55 1 -117 4 -137 6 -37 8 -38 49 -38 40 0 43 2 49 31
3 17 6 78 6 135 l0 104 -45 0 -45 0 -2 -107 -2 -108 -6 110 -6 110 -2 -100z
m76 -28 l3 -97 -26 0 -25 0 2 93 2 92 3 -87 c3 -69 7 -88 18 -88 12 0 15 18
15 89 0 51 -4 92 -10 94 -6 3 -5 4 2 3 9 -2 14 -31 16 -99z m-21 -39 c-2 -24
-4 -7 -4 37 0 44 2 63 4 43 2 -21 2 -57 0 -80z"/>
<path d="M910 455 c0 -32 2 -35 30 -35 28 0 30 3 30 35 0 32 -2 35 -30 35 -28
0 -30 -3 -30 -35z m47 -7 c-3 -8 -6 -5 -6 6 -1 11 2 17 5 13 3 -3 4 -12 1 -19z"/>
<path d="M1030 439 l0 -49 45 0 45 0 0 48 0 49 -45 1 -45 0 0 -49z m70 6 c0
-27 -4 -35 -17 -34 -10 0 -13 3 -6 5 7 3 9 12 6 20 -5 14 2 44 12 44 3 0 5
-16 5 -35z"/>
<path d="M1133 440 c0 -30 2 -43 4 -27 2 15 2 39 0 55 -2 15 -4 2 -4 -28z"/>
<path d="M620 397 c0 -8 12 -14 30 -14 18 0 30 6 30 14 0 8 -12 13 -30 13 -18
0 -30 -5 -30 -13z"/>
<path d="M910 397 c0 -8 12 -14 30 -14 18 0 30 6 30 14 0 8 -12 13 -30 13 -18
0 -30 -5 -30 -13z"/>
<path d="M468 323 c-6 -93 -2 -103 42 -103 44 0 48 10 42 103 l-4 57 -38 0
-38 0 -4 -57z m35 17 c-3 -11 -2 -28 2 -37 7 -15 9 -13 15 12 l8 30 1 -32 c1
-27 -3 -33 -19 -33 -16 0 -20 7 -20 33 0 29 6 47 16 47 1 0 0 -9 -3 -20z"/>
<path d="M630 365 c-11 -13 -8 -15 19 -15 33 0 42 14 15 24 -21 8 -20 8 -34
-9z"/>
<path d="M920 365 c-11 -13 -8 -15 19 -15 33 0 42 14 15 24 -21 8 -20 8 -34
-9z"/>
<path d="M1043 373 c-14 -5 -17 -55 -7 -115 6 -37 8 -38 49 -38 41 0 43 1 49
38 3 20 5 55 4 77 -1 36 -2 34 -8 -15 l-7 -55 -1 58 -2 57 -32 -1 c-18 0 -39
-3 -45 -6z m55 -56 c3 -30 0 -37 -15 -37 -10 0 -14 4 -8 8 6 4 10 18 10 32 0
14 -4 29 -10 33 -6 5 -4 7 5 4 9 -2 16 -18 18 -40z"/>
<path d="M620 330 c0 -5 14 -10 30 -10 17 0 30 5 30 10 0 6 -13 10 -30 10 -16
0 -30 -4 -30 -10z"/>
<path d="M910 330 c0 -5 7 -10 15 -10 8 0 15 5 15 10 0 6 -7 10 -15 10 -8 0
-15 -4 -15 -10z"/>
<path d="M950 330 c0 -5 5 -10 10 -10 6 0 10 5 10 10 0 6 -4 10 -10 10 -5 0
-10 -4 -10 -10z"/>
<path d="M633 303 c9 -2 25 -2 35 0 9 3 1 5 -18 5 -19 0 -27 -2 -17 -5z"/>
<path d="M918 303 c7 -3 16 -2 19 1 4 3 -2 6 -13 5 -11 0 -14 -3 -6 -6z"/>
<path d="M623 278 c2 -7 14 -13 27 -13 13 0 25 6 28 13 2 8 -7 12 -28 12 -21
0 -30 -4 -27 -12z"/>
<path d="M912 278 c3 -7 13 -15 22 -16 21 -4 43 14 32 25 -4 4 -11 1 -16 -7
-7 -10 -10 -11 -10 -2 0 6 -7 12 -16 12 -9 0 -14 -6 -12 -12z"/>
<path d="M638 243 c6 -2 18 -2 25 0 6 3 1 5 -13 5 -14 0 -19 -2 -12 -5z"/>
<path d="M928 243 c6 -2 18 -2 25 0 6 3 1 5 -13 5 -14 0 -19 -2 -12 -5z"/>
</g>
</svg>
