<?xml version="1.0" standalone="no"?>
<!DOCTYPE svg PUBLIC "-//W3C//DTD SVG 20010904//EN"
 "http://www.w3.org/TR/2001/REC-SVG-20010904/DTD/svg10.dtd">
<svg version="1.0" xmlns="http://www.w3.org/2000/svg"
 width="123.000000pt" height="200.000000pt" viewBox="0 0 123.000000 200.000000"
 preserveAspectRatio="xMidYMid meet">

<g transform="translate(0.000000,200.000000) scale(0.100000,-0.100000)"
fill="#000000" stroke="none">
<path d="M594 1918 c9 -15 16 -41 16 -58 0 -37 16 -40 23 -4 6 34 -3 66 -17
61 -6 -2 -17 3 -25 12 -7 9 -6 4 3 -11z"/>
<path d="M609 1803 c-2 -28 2 -47 12 -57 5 -6 9 6 9 32 0 40 -19 61 -21 25z"/>
<path d="M606 1670 c3 -39 2 -49 -5 -35 -7 14 -8 4 -5 -35 3 -34 1 -48 -4 -36
-6 13 -8 3 -8 -33 l0 -51 39 0 c36 0 39 2 31 23 -4 12 -8 47 -7 77 0 39 -3 49
-9 35 -5 -13 -7 -1 -4 35 2 31 1 46 -3 35 -7 -18 -9 -17 -19 10 -10 27 -11 24
-6 -25z"/>
<path d="M212 1665 c0 -16 2 -22 5 -12 2 9 2 23 0 30 -3 6 -5 -1 -5 -18z"/>
<path d="M1021 1653 c-1 -6 -4 -20 -7 -30 -5 -17 -5 -17 6 0 6 10 9 23 6 30
-3 9 -5 9 -5 0z"/>
<path d="M205 1600 c3 -20 0 -63 -6 -95 -14 -82 -19 -96 -30 -90 -5 3 -6 -1
-3 -9 4 -11 19 -16 49 -16 47 0 55 9 44 55 -6 28 -7 28 -9 5 -2 -22 -3 -20
-11 10 -5 19 -7 51 -4 70 3 19 1 51 -4 70 -6 22 -10 27 -11 15 l-1 -20 -10 20
c-7 15 -8 12 -4 -15z m22 -52 c-3 -7 -5 -2 -5 12 0 14 2 19 5 13 2 -7 2 -19 0
-25z"/>
<path d="M1025 1583 c-5 -21 -8 -24 -16 -12 -6 9 -8 -1 -4 -31 4 -33 3 -40 -4
-25 -8 15 -9 8 -5 -25 4 -34 3 -41 -5 -30 -8 11 -9 7 -4 -19 5 -26 3 -32 -7
-26 -8 5 -11 3 -8 -6 3 -9 22 -15 50 -17 45 -3 45 -3 46 30 1 25 -2 29 -9 18
-8 -11 -9 -4 -5 25 4 30 3 36 -5 25 -8 -11 -9 -3 -5 30 4 33 3 40 -5 25 -7
-15 -8 -9 -4 23 6 47 1 56 -10 15z"/>
<path d="M192 1560 c0 -14 2 -19 5 -12 2 6 2 18 0 25 -3 6 -5 1 -5 -13z"/>
<path d="M651 1544 c0 -11 3 -14 6 -6 3 7 2 16 -1 19 -3 4 -6 -2 -5 -13z"/>
<path d="M182 1505 c0 -16 2 -22 5 -12 2 9 2 23 0 30 -3 6 -5 -1 -5 -18z"/>
<path d="M242 1500 c0 -14 2 -19 5 -12 2 6 2 18 0 25 -3 6 -5 1 -5 -13z"/>
<path d="M547 1514 c-12 -13 -7 -118 7 -136 10 -13 28 -18 69 -18 51 0 56 2
64 28 5 15 6 52 3 82 -4 30 -8 43 -9 29 -1 -34 -17 -45 -68 -48 -39 -2 -43 0
-48 26 -4 15 -8 32 -9 36 -1 5 -5 5 -9 1z m106 -111 c-18 -2 -48 -2 -65 0 -18
2 -4 4 32 4 36 0 50 -2 33 -4z"/>
<path d="M172 1450 c0 -14 2 -19 5 -12 2 6 2 18 0 25 -3 6 -5 1 -5 -13z"/>
<path d="M138 1375 c-3 -25 0 -52 9 -72 14 -31 18 -33 67 -33 49 0 53 2 67 33
10 21 12 46 8 72 -3 22 -7 34 -8 27 -2 -22 -28 -44 -34 -29 -4 8 -6 7 -6 -3
-1 -13 -2 -13 -11 0 -9 13 -10 13 -10 0 0 -13 -1 -13 -10 0 -9 13 -10 13 -10
0 0 -13 -1 -13 -10 0 -7 11 -10 12 -10 2 0 -11 -2 -11 -13 0 -8 7 -16 20 -19
28 -3 8 -7 -3 -10 -25z m110 -62 c-15 -2 -42 -2 -60 0 -18 2 -6 4 27 4 33 0
48 -2 33 -4z"/>
<path d="M508 1357 c-4 -75 -1 -87 28 -87 19 0 24 -5 24 -25 0 -25 2 -26 58
-23 50 3 57 6 60 26 2 14 10 22 22 22 28 0 35 21 32 84 -4 65 -19 74 -28 16
-4 -22 -10 -37 -14 -35 -5 3 -11 -1 -13 -7 -4 -10 -8 -9 -16 2 -6 8 -11 10
-11 5 0 -14 -40 -14 -40 0 0 5 -5 3 -10 -5 -8 -12 -10 -12 -10 -1 0 11 -3 11
-15 1 -11 -9 -15 -9 -15 -1 0 7 -4 9 -10 6 -6 -3 -10 4 -10 17 0 13 -7 31 -14
41 -13 16 -14 12 -18 -36z m145 -74 c-18 -2 -48 -2 -65 0 -18 2 -4 4 32 4 36
0 50 -2 33 -4z"/>
<path d="M947 1404 c-12 -12 -8 -62 7 -99 14 -34 17 -35 68 -35 48 0 54 3 66
27 6 15 12 47 11 72 0 45 0 45 -16 24 -12 -19 -25 -23 -65 -23 -40 0 -50 4
-56 20 -4 12 -11 18 -15 14z m111 -91 c-15 -2 -42 -2 -60 0 -18 2 -6 4 27 4
33 0 48 -2 33 -4z"/>
<path d="M108 1269 c-3 -56 -1 -62 25 -72 11 -4 21 -16 24 -27 4 -17 14 -20
58 -20 44 0 54 3 58 20 3 11 13 23 24 27 26 10 28 16 25 72 -5 61 -19 67 -28
10 -5 -27 -10 -36 -15 -27 -7 10 -9 10 -9 1 0 -7 -9 -13 -20 -13 -11 0 -20 6
-20 13 0 8 -4 7 -10 -3 -9 -13 -10 -13 -10 0 0 13 -1 13 -10 0 -9 -13 -11 -13
-20 0 -9 13 -10 13 -10 0 0 -12 -2 -13 -9 -1 -7 11 -9 11 -13 0 -3 -8 -8 5
-11 29 -10 57 -24 53 -29 -9z m139 -56 c-20 -2 -52 -2 -70 0 -17 2 0 4 38 4
39 0 53 -2 32 -4z"/>
<path d="M918 1273 c-5 -59 -2 -70 23 -76 11 -3 23 -15 26 -26 5 -18 13 -21
59 -21 47 0 54 3 54 19 0 12 11 26 26 33 15 7 26 16 25 21 0 4 -1 27 -1 52 0
56 -18 59 -26 4 -5 -27 -10 -36 -15 -27 -7 10 -9 10 -9 1 0 -7 -9 -13 -19 -13
-11 0 -22 6 -24 13 -4 10 -6 10 -6 0 -1 -7 -10 -13 -21 -13 -11 0 -20 6 -20
13 0 8 -4 7 -10 -3 -9 -13 -10 -13 -10 0 0 13 -1 13 -10 0 -8 -12 -10 -10 -10
10 0 14 -7 33 -14 43 -12 16 -14 13 -18 -30z m139 -60 c-20 -2 -52 -2 -70 0
-17 2 0 4 38 4 39 0 53 -2 32 -4z"/>
<path d="M478 1207 l-3 -87 145 0 145 0 -3 85 c-2 47 -8 85 -13 85 -5 0 -9 -7
-9 -15 0 -9 -9 -15 -25 -15 -23 0 -25 -4 -26 -42 -1 -24 -3 -35 -6 -25 -5 21
-23 23 -23 2 0 -8 -4 -15 -10 -15 -5 0 -10 8 -10 17 0 15 -2 14 -15 -3 -14
-19 -14 -19 -15 1 -1 20 -1 20 -12 1 -11 -19 -11 -19 -24 -1 -14 18 -14 18
-15 -1 -1 -10 -5 -1 -8 21 -4 29 -11 41 -26 44 -11 2 -25 11 -31 20 -10 13
-13 -1 -16 -72z m180 -74 c-21 -2 -55 -2 -75 0 -21 2 -4 4 37 4 41 0 58 -2 38
-4z"/>
<path d="M78 1135 l-3 -75 140 0 140 0 -3 75 c-2 41 -8 75 -13 75 -5 0 -9 -7
-9 -15 0 -8 -9 -15 -20 -15 -16 0 -20 -7 -20 -31 0 -23 -4 -30 -14 -26 -8 3
-17 1 -20 -6 -3 -9 -7 -8 -14 2 -7 9 -11 10 -17 2 -5 -9 -10 -9 -20 -1 -10 8
-14 7 -18 -2 -4 -10 -7 -10 -15 1 -5 7 -15 10 -21 7 -7 -5 -11 4 -11 23 0 24
-4 31 -20 31 -11 0 -20 7 -20 15 0 8 -4 15 -9 15 -5 0 -11 -34 -13 -75z m180
-62 c-21 -2 -57 -2 -80 0 -24 2 -7 4 37 4 44 0 63 -2 43 -4z"/>
<path d="M888 1135 l-3 -75 140 0 140 0 -3 75 c-3 71 -13 93 -26 60 -3 -8 -15
-15 -26 -15 -16 0 -20 -7 -20 -31 0 -16 -4 -28 -9 -25 -5 4 -12 0 -14 -6 -4
-10 -8 -9 -17 2 -9 12 -13 12 -17 2 -4 -9 -8 -10 -18 -2 -10 8 -15 8 -20 -1
-6 -8 -10 -7 -16 2 -8 12 -11 11 -19 -1 -7 -11 -10 -6 -10 23 0 30 -4 37 -20
37 -11 0 -20 7 -20 15 0 8 -4 15 -9 15 -5 0 -11 -34 -13 -75z m170 -62 c-21
-2 -55 -2 -75 0 -21 2 -4 4 37 4 41 0 58 -2 38 -4z"/>
<path d="M477 626 c-4 -261 -10 -495 -13 -520 l-7 -46 42 0 c39 0 41 2 41 29
0 16 -4 31 -10 33 -6 2 -12 189 -16 491 -5 362 -10 487 -19 487 -9 0 -13 -121
-18 -474z"/>
<path d="M530 1090 c0 -6 37 -10 90 -10 53 0 90 4 90 10 0 6 -37 10 -90 10
-53 0 -90 -4 -90 -10z"/>
<path d="M717 626 c-4 -260 -10 -494 -13 -520 l-7 -46 43 0 43 0 -7 46 c-3 25
-9 259 -13 520 -6 434 -8 474 -23 474 -15 0 -17 -40 -23 -474z"/>
<path d="M532 943 l-2 -123 90 0 90 0 0 120 c0 154 -18 160 -23 8 l-3 -113 -2
113 -2 112 -65 0 -65 0 -2 -117 -2 -118 -6 120 -6 120 -2 -122z m106 95 c8 -8
12 -45 12 -100 l0 -88 -35 0 -35 0 0 84 c0 64 4 88 16 100 19 19 26 20 42 4z"/>
<path d="M602 1028 c-7 -7 -12 -42 -12 -90 0 -77 0 -78 25 -78 l26 0 -3 87
c-3 85 -12 105 -36 81z m28 -48 c0 -16 -4 -30 -10 -30 -5 0 -10 14 -10 30 0
17 5 30 10 30 6 0 10 -13 10 -30z m0 -75 c0 -19 -4 -35 -10 -35 -5 0 -10 16
-10 35 0 19 5 35 10 35 6 0 10 -16 10 -35z"/>
<path d="M76 594 c-4 -245 -9 -466 -13 -490 l-6 -44 42 0 c39 0 41 2 41 29 0
16 -4 31 -10 33 -5 2 -12 185 -16 461 -5 341 -10 457 -19 457 -9 0 -14 -114
-19 -446z"/>
<path d="M130 1030 c0 -6 35 -10 85 -10 50 0 85 4 85 10 0 6 -35 10 -85 10
-50 0 -85 -4 -85 -10z"/>
<path d="M316 583 c-4 -276 -11 -459 -16 -461 -6 -2 -10 -17 -10 -33 0 -27 2
-29 41 -29 l42 0 -6 44 c-4 24 -9 245 -13 490 -5 332 -10 446 -19 446 -9 0
-14 -116 -19 -457z"/>
<path d="M886 594 c-4 -245 -9 -466 -13 -490 l-6 -44 42 0 c36 0 41 3 41 23 0
13 -4 27 -10 33 -5 5 -12 200 -16 467 -5 341 -10 457 -19 457 -9 0 -14 -114
-19 -446z"/>
<path d="M940 1030 c0 -6 35 -10 85 -10 50 0 85 4 85 10 0 6 -35 10 -85 10
-50 0 -85 -4 -85 -10z"/>
<path d="M1116 595 c-3 -245 -9 -466 -13 -490 l-6 -45 43 0 43 0 -6 45 c-4 24
-10 245 -13 490 -11 666 -37 666 -48 0z"/>
<path d="M132 913 l-2 -93 85 0 85 0 -2 93 -2 92 -6 -90 -6 -90 -2 88 -2 87
-65 0 -65 0 -2 -87 -2 -88 -6 90 -6 90 -2 -92z m106 -1 c3 -50 2 -52 -22 -52
-24 0 -26 3 -26 48 0 53 6 64 30 60 11 -2 16 -18 18 -56z"/>
<path d="M200 915 c0 -33 4 -45 15 -45 11 0 15 12 15 45 0 33 -4 45 -15 45
-11 0 -15 -12 -15 -45z m17 -17 c-2 -13 -4 -5 -4 17 -1 22 1 32 4 23 2 -10 2
-28 0 -40z"/>
<path d="M942 913 l-2 -93 85 0 85 0 -2 93 -2 92 -6 -90 -6 -90 -2 88 -2 87
-65 0 -65 0 -2 -87 -2 -88 -6 90 -6 90 -2 -92z m104 33 c11 -44 1 -81 -23 -84
-21 -3 -23 1 -23 46 0 27 3 52 7 55 14 14 33 6 39 -17z"/>
<path d="M1010 916 c0 -35 4 -46 16 -46 12 0 14 9 12 42 -4 59 -28 63 -28 4z
m17 -18 c-2 -13 -4 -5 -4 17 -1 22 1 32 4 23 2 -10 2 -28 0 -40z"/>
<path d="M366 908 c-3 -13 -6 -40 -6 -60 l0 -38 55 0 55 0 0 38 c0 56 -10 82
-31 82 -11 0 -19 -7 -19 -17 -1 -17 -1 -17 -14 0 -18 23 -32 21 -40 -5z m72
-85 c-10 -2 -28 -2 -40 0 -13 2 -5 4 17 4 22 1 32 -1 23 -4z"/>
<path d="M776 908 c-3 -13 -6 -40 -6 -60 l0 -38 50 0 50 0 0 48 c0 26 -5 54
-10 62 -8 13 -11 12 -24 -5 -13 -19 -15 -19 -21 -2 -10 24 -32 21 -39 -5z m72
-85 c-10 -2 -28 -2 -40 0 -13 2 -5 4 17 4 22 1 32 -1 23 -4z"/>
<path d="M132 733 l-2 -83 85 0 85 0 -2 83 -2 82 -6 -80 -6 -80 -2 78 -2 77
-65 0 -65 0 -2 -77 -2 -78 -6 80 -6 80 -2 -82z m108 -9 c0 -40 -2 -44 -25 -44
-23 0 -25 3 -23 48 l1 47 7 -45 7 -45 3 45 c1 25 2 49 1 54 -1 5 5 4 13 -4 10
-8 16 -29 16 -56z"/>
<path d="M223 730 c0 -25 2 -35 4 -22 2 12 2 32 0 45 -2 12 -4 2 -4 -23z"/>
<path d="M532 653 c-1 -89 1 -168 4 -177 9 -23 159 -23 168 0 3 9 6 87 6 175
0 211 -18 213 -23 2 l-3 -158 -2 158 -2 157 -65 0 -65 0 -2 -162 -2 -163 -6
165 -6 165 -2 -162z m102 121 c14 -5 16 -27 16 -141 l0 -134 -32 3 -33 3 -3
118 c-3 141 6 169 52 151z"/>
<path d="M596 755 c-3 -9 -6 -68 -6 -131 l0 -114 25 0 26 0 -3 127 c-3 109 -5
128 -19 131 -9 2 -19 -4 -23 -13z m33 -85 c0 -38 -5 -70 -10 -70 -5 0 -9 32
-9 70 0 39 4 70 10 70 5 0 9 -31 9 -70z m1 -115 c0 -19 -4 -35 -10 -35 -5 0
-10 16 -10 35 0 19 5 35 10 35 6 0 10 -16 10 -35z"/>
<path d="M942 733 l-2 -83 85 0 85 0 -2 83 -2 82 -6 -80 -6 -80 -2 78 -2 77
-65 0 -65 0 -2 -77 -2 -78 -6 80 -6 80 -2 -82z m96 45 c7 -7 12 -31 12 -55 0
-39 -2 -43 -25 -43 -23 0 -25 3 -25 48 0 61 12 76 38 50z"/>
<path d="M1010 736 c0 -35 4 -46 16 -46 12 0 14 9 12 42 -4 59 -28 63 -28 4z
m17 -23 c-3 -10 -5 -2 -5 17 0 19 2 27 5 18 2 -10 2 -26 0 -35z"/>
<path d="M360 735 l0 -55 55 0 55 0 0 55 0 55 -55 0 -55 0 0 -55z m75 5 c0
-13 -7 -26 -15 -28 -13 -5 -13 -3 -1 11 11 14 11 20 0 34 -12 14 -12 16 1 11
8 -2 15 -15 15 -28z m-38 -12 c-3 -7 -5 -2 -5 12 0 14 2 19 5 13 2 -7 2 -19 0
-25z"/>
<path d="M770 735 l0 -55 50 0 50 0 0 55 0 55 -50 0 -50 0 0 -55z m64 29 c9
-3 16 -14 16 -24 0 -22 -29 -35 -44 -20 -8 8 -6 9 5 5 21 -8 35 13 20 28 -9 9
-14 8 -21 -3 -5 -8 -10 -10 -10 -4 0 10 9 24 16 24 1 0 9 -3 18 -6z"/>
<path d="M360 655 c0 -12 13 -15 55 -15 42 0 55 3 55 15 0 12 -13 15 -55 15
-42 0 -55 -3 -55 -15z"/>
<path d="M770 655 c0 -11 12 -15 50 -15 38 0 50 4 50 15 0 11 -12 15 -50 15
-38 0 -50 -4 -50 -15z"/>
<path d="M132 568 c-3 -109 -3 -108 83 -108 86 0 86 -1 83 108 l-2 77 -6 -80
-6 -80 -2 78 -2 77 -65 0 -65 0 -2 -77 -2 -78 -6 80 -6 80 -2 -77z m81 35
c-19 -7 -17 -93 1 -93 10 0 16 14 19 43 l4 42 1 -47 c2 -45 0 -48 -23 -48 -23
0 -25 3 -25 48 0 50 5 63 24 61 6 0 5 -3 -1 -6z m4 -65 c-2 -13 -4 -5 -4 17
-1 22 1 32 4 23 2 -10 2 -28 0 -40z"/>
<path d="M958 563 l-2 -78 -6 75 -6 75 -2 -72 c-3 -103 -3 -103 83 -103 86 0
86 -1 83 108 l-2 77 -6 -80 -6 -80 -2 78 -2 77 -65 0 -65 0 -2 -77z m87 -8 c0
-44 -3 -50 -22 -53 -21 -3 -23 1 -23 46 0 53 6 64 30 60 11 -3 15 -16 15 -53z"/>
<path d="M1010 555 c0 -33 4 -45 15 -45 11 0 15 12 15 45 0 33 -4 45 -15 45
-11 0 -15 -12 -15 -45z m17 -17 c-2 -13 -4 -5 -4 17 -1 22 1 32 4 23 2 -10 2
-28 0 -40z"/>
<path d="M360 566 c0 -29 3 -68 6 -85 6 -28 10 -31 44 -31 46 0 50 8 50 101
l0 69 -50 0 -50 0 0 -54z m80 -37 c0 -46 -2 -49 -25 -49 -23 0 -25 3 -25 48 0
53 15 78 37 61 7 -7 13 -32 13 -60z"/>
<path d="M406 583 c-3 -3 -6 -26 -6 -50 0 -32 4 -43 15 -43 11 0 15 12 15 44
0 43 -10 63 -24 49z"/>
<path d="M770 566 c0 -29 3 -68 6 -85 6 -28 10 -31 44 -31 46 0 50 8 50 101
l0 69 -50 0 -50 0 0 -54z m42 -26 c-3 -40 -1 -50 11 -50 11 0 17 13 20 43 l4
42 1 -47 c2 -45 0 -48 -23 -48 -23 0 -25 3 -25 48 0 39 5 62 14 62 1 0 -1 -22
-2 -50z"/>
<path d="M142 373 l-2 -83 75 0 75 0 -2 83 -2 82 -6 -80 -6 -80 -2 78 -2 77
-55 0 -55 0 -2 -77 -2 -78 -6 80 -6 80 -2 -82z m98 0 c0 -57 -24 -54 -26 3
l-2 39 8 -40 7 -40 2 41 c0 22 -5 46 -11 54 -11 12 -10 12 5 1 12 -9 17 -27
17 -58z m-43 -20 c-2 -16 -4 -5 -4 22 0 28 2 40 4 28 2 -13 2 -35 0 -50z"/>
<path d="M542 310 c-1 -80 1 -169 4 -197 l7 -53 67 0 67 0 7 53 c3 28 6 117 6
197 0 193 -18 173 -23 -25 l-3 -150 -2 158 -2 158 -52 -3 -53 -3 -5 -155 -5
-155 -5 160 -6 160 -2 -145z m96 88 c8 -8 12 -54 12 -141 l0 -128 -32 3 -33 3
-3 121 c-2 101 0 125 13 138 20 19 27 20 43 4z m5 -305 c-13 -2 -35 -2 -50 0
-16 2 -5 4 22 4 28 0 40 -2 28 -4z"/>
<path d="M602 388 c-8 -8 -12 -51 -12 -130 l0 -118 25 0 26 0 -3 127 c-3 124
-10 147 -36 121z m28 -53 c0 -19 -4 -35 -10 -35 -5 0 -10 16 -10 35 0 19 5 35
10 35 6 0 10 -16 10 -35z m-1 -115 c0 -38 -4 -70 -9 -70 -6 0 -10 32 -10 70 0
39 4 70 9 70 5 0 10 -31 10 -70z"/>
<path d="M952 373 l-2 -83 75 0 75 0 -2 83 -2 82 -6 -80 -6 -80 -2 78 -2 77
-55 0 -55 0 -2 -77 -2 -78 -6 80 -6 80 -2 -82z m98 1 c0 -40 -2 -44 -25 -44
-24 0 -25 3 -23 53 l1 52 7 -50 7 -50 3 40 3 40 7 -40 7 -40 2 41 c0 22 -5 46
-11 54 -11 12 -10 12 5 1 11 -9 17 -27 17 -57z"/>
<path d="M370 385 l0 -45 40 0 40 0 0 45 0 45 -40 0 -40 0 0 -45z m70 0 c0 -8
-6 -15 -12 -18 -21 -7 -38 4 -38 23 0 10 6 20 13 23 15 5 37 -11 37 -28z"/>
<path d="M405 400 c-4 -6 -3 -16 3 -22 6 -6 12 -6 17 2 4 6 3 16 -3 22 -6 6
-12 6 -17 -2z"/>
<path d="M780 385 l0 -45 40 0 40 0 0 45 0 45 -40 0 -40 0 0 -45z m36 13 c0
-7 4 -13 9 -13 6 0 9 6 9 12 -1 7 2 10 7 7 24 -15 0 -47 -28 -37 -15 5 -18 43
-4 43 5 0 8 -6 7 -12z"/>
<path d="M370 302 c0 -14 8 -18 40 -17 31 0 40 4 40 18 0 13 -9 17 -40 17 -32
0 -40 -4 -40 -18z"/>
<path d="M780 302 c0 -14 8 -18 40 -17 31 0 40 4 40 18 0 13 -9 17 -40 17 -32
0 -40 -4 -40 -18z"/>
<path d="M142 225 c-1 -33 1 -84 4 -112 l7 -53 62 0 62 0 7 52 c3 29 5 80 4
113 l-2 60 -6 -75 -6 -75 -2 73 -2 72 -55 0 -55 0 -2 -77 -2 -78 -6 80 c-6 78
-6 78 -8 20z m96 -33 c3 -50 2 -52 -22 -52 -24 0 -26 3 -26 48 0 53 6 64 30
60 11 -2 16 -18 18 -56z m5 -99 c-13 -2 -35 -2 -50 0 -16 2 -5 4 22 4 28 0 40
-2 28 -4z"/>
<path d="M200 195 c0 -33 4 -45 15 -45 11 0 15 12 15 45 0 33 -4 45 -15 45
-11 0 -15 -12 -15 -45z m17 -17 c-2 -13 -4 -5 -4 17 -1 22 1 32 4 23 2 -10 2
-28 0 -40z"/>
<path d="M382 268 c-25 -25 -13 -38 33 -38 49 0 50 1 35 31 -12 21 -50 25 -68
7z"/>
<path d="M792 268 c-25 -25 -13 -38 33 -38 49 0 50 1 35 31 -12 21 -50 25 -68
7z"/>
<path d="M952 219 c-1 -36 1 -87 4 -113 l7 -46 62 0 62 0 7 52 c3 29 5 80 4
113 -2 58 -2 58 -8 -20 l-6 -80 -2 78 -2 77 -55 0 -55 0 -2 -77 -2 -78 -6 80
-6 80 -2 -66z m93 -24 c0 -44 -3 -50 -22 -53 -21 -3 -23 1 -23 46 0 53 6 64
30 60 11 -3 15 -16 15 -53z m-2 -102 c-13 -2 -33 -2 -45 0 -13 2 -3 4 22 4 25
0 35 -2 23 -4z"/>
<path d="M1010 195 c0 -33 4 -45 15 -45 11 0 15 12 15 45 0 33 -4 45 -15 45
-11 0 -15 -12 -15 -45z m17 -17 c-2 -13 -4 -5 -4 17 -1 22 1 32 4 23 2 -10 2
-28 0 -40z"/>
<path d="M370 210 c0 -5 9 -10 20 -10 11 0 20 5 20 10 0 6 -9 10 -20 10 -11 0
-20 -4 -20 -10z"/>
<path d="M420 210 c0 -5 9 -10 20 -10 11 0 20 5 20 10 0 6 -9 10 -20 10 -11 0
-20 -4 -20 -10z"/>
<path d="M780 210 c0 -5 9 -10 20 -10 11 0 20 5 20 10 0 6 -9 10 -20 10 -11 0
-20 -4 -20 -10z"/>
<path d="M830 210 c0 -5 9 -10 20 -10 11 0 20 5 20 10 0 6 -9 10 -20 10 -11 0
-20 -4 -20 -10z"/>
<path d="M370 180 c0 -5 9 -10 20 -10 11 0 20 5 20 10 0 6 -9 10 -20 10 -11 0
-20 -4 -20 -10z"/>
<path d="M420 180 c0 -5 9 -10 20 -10 11 0 20 5 20 10 0 6 -9 10 -20 10 -11 0
-20 -4 -20 -10z"/>
<path d="M780 180 c0 -5 9 -10 20 -10 11 0 20 5 20 10 0 6 -9 10 -20 10 -11 0
-20 -4 -20 -10z"/>
<path d="M830 180 c0 -5 9 -10 20 -10 11 0 20 5 20 10 0 6 -9 10 -20 10 -11 0
-20 -4 -20 -10z"/>
<path d="M370 145 c0 -8 9 -15 20 -15 11 0 20 7 20 15 0 8 -9 15 -20 15 -11 0
-20 -7 -20 -15z"/>
<path d="M420 145 c0 -8 9 -15 20 -15 11 0 20 7 20 15 0 8 -9 15 -20 15 -11 0
-20 -7 -20 -15z"/>
<path d="M780 145 c0 -8 9 -15 20 -15 11 0 20 7 20 15 0 8 -9 15 -20 15 -11 0
-20 -7 -20 -15z"/>
<path d="M830 145 c0 -8 9 -15 20 -15 11 0 20 7 20 15 0 8 -9 15 -20 15 -11 0
-20 -7 -20 -15z"/>
<path d="M393 113 c9 -2 25 -2 35 0 9 3 1 5 -18 5 -19 0 -27 -2 -17 -5z"/>
<path d="M803 113 c9 -2 25 -2 35 0 9 3 1 5 -18 5 -19 0 -27 -2 -17 -5z"/>
<path d="M393 93 c9 -2 25 -2 35 0 9 3 1 5 -18 5 -19 0 -27 -2 -17 -5z"/>
<path d="M803 93 c9 -2 25 -2 35 0 9 3 1 5 -18 5 -19 0 -27 -2 -17 -5z"/>
<path d="M403 73 c9 -2 23 -2 30 0 6 3 -1 5 -18 5 -16 0 -22 -2 -12 -5z"/>
<path d="M813 73 c9 -2 23 -2 30 0 6 3 -1 5 -18 5 -16 0 -22 -2 -12 -5z"/>
</g>
</svg>
